<svg width="48" height="51" viewBox="0 0 48 51" fill="none" xmlns="http://www.w3.org/2000/svg">
<mask id="path-1-inside-1_393_138" fill="white">
<path d="M0 17C0 8.71573 6.71573 2 15 2H33C41.2843 2 48 8.71573 48 17V35C48 43.2843 41.2843 50 33 50H15C6.71573 50 0 43.2843 0 35V17Z"/>
</mask>
<path d="M0 17C0 8.71573 6.71573 2 15 2H33C41.2843 2 48 8.71573 48 17V35C48 43.2843 41.2843 50 33 50H15C6.71573 50 0 43.2843 0 35V17Z" fill="white"/>
<path d="M-1 17C-1 8.16344 6.16344 1 15 1H36C44.8366 1 52 8.16344 52 17H44C44 9.26801 39.0751 3 33 3H15C7.26801 3 1 9.26801 1 17H-1ZM52 35C52 45.4934 43.4934 54 33 54H15C6.16344 54 -1 46.8366 -1 38L1 35C1 41.0751 7.26801 46 15 46H33C39.0751 46 44 41.0751 44 35H52ZM15 54C6.16344 54 -1 46.8366 -1 38V17C-1 8.16344 6.16344 1 15 1V3C7.26801 3 1 9.26801 1 17V35C1 41.0751 7.26801 46 15 46V54ZM36 1C44.8366 1 52 8.16344 52 17V35C52 45.4934 43.4934 54 33 54V46C39.0751 46 44 41.0751 44 35V17C44 9.26801 39.0751 3 33 3L36 1Z" fill="black" mask="url(#path-1-inside-1_393_138)"/>
<mask id="path-3-outside-2_393_138" maskUnits="userSpaceOnUse" x="5" y="10" width="33" height="29" fill="black">
<rect fill="white" x="5" y="10" width="33" height="29"/>
<path d="M25.2469 12.69C28.7469 12.69 31.3836 13.3667 33.1569 14.72C34.9303 16.05 35.8169 18.01 35.8169 20.6C35.8169 21.8833 35.5836 23.365 35.1169 25.045C34.3469 27.7517 33.3086 29.8983 32.0019 31.485C30.6953 33.0717 28.9686 34.2267 26.8219 34.95C24.6986 35.6733 21.9686 36.0233 18.6319 36L9.11193 35.965C8.62193 35.965 8.2486 35.8833 7.99193 35.72C7.71193 35.5567 7.57193 35.335 7.57193 35.055C7.57193 34.915 7.60693 34.7633 7.67693 34.6C7.74693 34.39 7.85193 34.2383 7.99193 34.145C8.1086 34.0517 8.29527 33.9233 8.55193 33.76C8.92527 33.55 9.21693 33.3167 9.42693 33.06C9.66027 32.8033 9.8586 32.395 10.0219 31.835L14.2919 16.785C14.3853 16.4817 14.4319 16.19 14.4319 15.91C14.4319 15.6533 14.3853 15.4433 14.2919 15.28C14.2219 15.0933 14.1169 14.8833 13.9769 14.65C13.7669 14.3467 13.6619 14.1017 13.6619 13.915C13.6619 13.845 13.6853 13.7167 13.7319 13.53C13.8253 13.2267 14.0236 13.0167 14.3269 12.9C14.6536 12.76 15.1436 12.69 15.7969 12.69H25.2469ZM26.1569 24.275C26.7636 22.0817 27.0669 20.355 27.0669 19.095C27.0669 17.8583 26.8103 17.0067 26.2969 16.54C25.7836 16.0733 25.0486 15.84 24.0919 15.84H23.3219L18.5969 32.85H19.4369C20.5103 32.85 21.4086 32.6283 22.1319 32.185C22.8786 31.7183 23.5669 30.8783 24.1969 29.665C24.8269 28.4283 25.4803 26.6317 26.1569 24.275Z"/>
</mask>
<path d="M25.2469 12.69C28.7469 12.69 31.3836 13.3667 33.1569 14.72C34.9303 16.05 35.8169 18.01 35.8169 20.6C35.8169 21.8833 35.5836 23.365 35.1169 25.045C34.3469 27.7517 33.3086 29.8983 32.0019 31.485C30.6953 33.0717 28.9686 34.2267 26.8219 34.95C24.6986 35.6733 21.9686 36.0233 18.6319 36L9.11193 35.965C8.62193 35.965 8.2486 35.8833 7.99193 35.72C7.71193 35.5567 7.57193 35.335 7.57193 35.055C7.57193 34.915 7.60693 34.7633 7.67693 34.6C7.74693 34.39 7.85193 34.2383 7.99193 34.145C8.1086 34.0517 8.29527 33.9233 8.55193 33.76C8.92527 33.55 9.21693 33.3167 9.42693 33.06C9.66027 32.8033 9.8586 32.395 10.0219 31.835L14.2919 16.785C14.3853 16.4817 14.4319 16.19 14.4319 15.91C14.4319 15.6533 14.3853 15.4433 14.2919 15.28C14.2219 15.0933 14.1169 14.8833 13.9769 14.65C13.7669 14.3467 13.6619 14.1017 13.6619 13.915C13.6619 13.845 13.6853 13.7167 13.7319 13.53C13.8253 13.2267 14.0236 13.0167 14.3269 12.9C14.6536 12.76 15.1436 12.69 15.7969 12.69H25.2469ZM26.1569 24.275C26.7636 22.0817 27.0669 20.355 27.0669 19.095C27.0669 17.8583 26.8103 17.0067 26.2969 16.54C25.7836 16.0733 25.0486 15.84 24.0919 15.84H23.3219L18.5969 32.85H19.4369C20.5103 32.85 21.4086 32.6283 22.1319 32.185C22.8786 31.7183 23.5669 30.8783 24.1969 29.665C24.8269 28.4283 25.4803 26.6317 26.1569 24.275Z" fill="#FF8CC5"/>
<path d="M33.1569 14.72L31.9436 16.3099L31.9502 16.315L31.9569 16.32L33.1569 14.72ZM35.1169 25.045L37.0406 25.5923L37.044 25.5803L35.1169 25.045ZM26.8219 34.95L26.1833 33.0547L26.177 33.0568L26.8219 34.95ZM18.6319 36L18.6459 34L18.6393 34L18.6319 36ZM9.11193 35.965L9.11929 33.965H9.11193V35.965ZM7.99193 35.72L9.06568 34.0327L9.03307 34.0119L8.99968 33.9924L7.99193 35.72ZM7.67693 34.6L9.51522 35.3878L9.54799 35.3114L9.5743 35.2325L7.67693 34.6ZM7.99193 34.145L9.10133 35.8091L9.17355 35.761L9.24132 35.7067L7.99193 34.145ZM8.55193 33.76L7.57141 32.0168L7.52404 32.0435L7.47818 32.0727L8.55193 33.76ZM9.42693 33.06L7.94705 31.7147L7.91201 31.7532L7.87902 31.7935L9.42693 33.06ZM10.0219 31.835L11.9419 32.395L11.944 32.388L11.946 32.3809L10.0219 31.835ZM14.2919 16.785L12.3804 16.1968L12.3739 16.2179L12.3679 16.2391L14.2919 16.785ZM14.2919 15.28L12.4193 15.9822L12.4757 16.1327L12.5554 16.2723L14.2919 15.28ZM13.9769 14.65L15.6919 13.621L15.6584 13.5651L15.6213 13.5116L13.9769 14.65ZM13.7319 13.53L11.8204 12.9418L11.8046 12.993L11.7916 13.0449L13.7319 13.53ZM14.3269 12.9L15.0449 14.7667L15.0801 14.7531L15.1148 14.7383L14.3269 12.9ZM26.1569 24.275L28.0793 24.827L28.082 24.8176L28.0846 24.8082L26.1569 24.275ZM26.2969 16.54L27.6423 15.0601L27.6423 15.0601L26.2969 16.54ZM23.3219 15.84V13.84H21.8018L21.3949 15.3047L23.3219 15.84ZM18.5969 32.85L16.6699 32.3147L15.9657 34.85H18.5969V32.85ZM22.1319 32.185L23.1771 33.8902L23.1845 33.8856L23.1919 33.881L22.1319 32.185ZM24.1969 29.665L25.9719 30.5866L25.9755 30.5798L25.979 30.5729L24.1969 29.665ZM25.2469 14.69C28.5418 14.69 30.6674 15.336 31.9436 16.3099L34.3703 13.1301C32.0998 11.3974 28.952 10.69 25.2469 10.69V14.69ZM31.9569 16.32C33.1377 17.2056 33.8169 18.5193 33.8169 20.6H37.8169C37.8169 17.5007 36.7228 14.8944 34.3569 13.12L31.9569 16.32ZM33.8169 20.6C33.8169 21.6509 33.6242 22.9462 33.1899 24.5097L37.044 25.5803C37.543 23.7838 37.8169 22.1158 37.8169 20.6H33.8169ZM33.1933 24.4977C32.4725 27.0313 31.5377 28.9026 30.4581 30.2136L33.5458 32.7564C35.0795 30.894 36.2214 28.472 37.0406 25.5923L33.1933 24.4977ZM30.4581 30.2136C29.4128 31.4828 28.0132 32.4381 26.1833 33.0547L27.4606 36.8453C29.924 36.0152 31.9777 34.6605 33.5458 32.7564L30.4581 30.2136ZM26.177 33.0568C24.3423 33.6818 21.857 34.0225 18.6459 34L18.6179 38C22.0802 38.0242 25.0549 37.6648 27.4669 36.8432L26.177 33.0568ZM18.6393 34L9.11929 33.965L9.10458 37.965L18.6246 38L18.6393 34ZM9.11193 33.965C9.04439 33.965 8.99254 33.9622 8.95466 33.9586C8.91662 33.955 8.89665 33.951 8.89183 33.95C8.88696 33.9489 8.90171 33.9517 8.9312 33.9632C8.961 33.9748 9.00825 33.9961 9.06568 34.0327L6.91818 37.4073C7.63638 37.8644 8.45235 37.965 9.11193 37.965V33.965ZM8.99968 33.9924C9.07259 34.035 9.23056 34.1458 9.36791 34.3633C9.51365 34.594 9.57193 34.8438 9.57193 35.055H5.57193C5.57193 36.1706 6.20524 36.9932 6.98419 37.4476L8.99968 33.9924ZM9.57193 35.055C9.57193 35.2482 9.52426 35.3668 9.51522 35.3878L5.83864 33.8122C5.68961 34.1599 5.57193 34.5818 5.57193 35.055H9.57193ZM9.5743 35.2325C9.54814 35.3109 9.4335 35.5877 9.10133 35.8091L6.88253 32.4809C6.27037 32.889 5.94573 33.4691 5.77957 33.9675L9.5743 35.2325ZM9.24132 35.7067C9.26984 35.6839 9.38113 35.6029 9.62568 35.4473L7.47818 32.0727C7.2094 32.2437 6.94736 32.4194 6.74254 32.5833L9.24132 35.7067ZM9.53246 35.5032C10.0626 35.2049 10.5685 34.8232 10.9748 34.3265L7.87902 31.7935C7.8654 31.8102 7.78791 31.8951 7.57141 32.0168L9.53246 35.5032ZM10.9068 34.4053C11.4388 33.8201 11.7441 33.0733 11.9419 32.395L8.10193 31.275C8.04334 31.4759 7.99023 31.608 7.95167 31.6874C7.91171 31.7697 7.90289 31.7632 7.94705 31.7147L10.9068 34.4053ZM11.946 32.3809L16.216 17.3309L12.3679 16.2391L8.09788 31.2891L11.946 32.3809ZM16.2035 17.3732C16.3478 16.9043 16.4319 16.4139 16.4319 15.91H12.4319C12.4319 15.9661 12.4228 16.059 12.3804 16.1968L16.2035 17.3732ZM16.4319 15.91C16.4319 15.4268 16.3461 14.8437 16.0284 14.2877L12.5554 16.2723C12.4244 16.043 12.4319 15.8799 12.4319 15.91H16.4319ZM16.1646 14.5778C16.0398 14.2451 15.8734 13.9235 15.6919 13.621L12.2619 15.679C12.3605 15.8432 12.404 15.9416 12.4193 15.9822L16.1646 14.5778ZM15.6213 13.5116C15.5658 13.4314 15.563 13.4136 15.579 13.4509C15.5881 13.4721 15.6073 13.5206 15.625 13.5932C15.6426 13.6657 15.6619 13.7757 15.6619 13.915H11.6619C11.6619 14.7467 12.0796 15.4231 12.3325 15.7884L15.6213 13.5116ZM15.6619 13.915C15.6619 13.9605 15.6601 13.9976 15.6583 14.0236C15.6565 14.0502 15.6543 14.0711 15.6526 14.0852C15.6494 14.1123 15.6467 14.1266 15.6472 14.124C15.6474 14.1225 15.6493 14.1127 15.6537 14.0929C15.658 14.0735 15.664 14.0478 15.6722 14.0151L11.7916 13.0449C11.7514 13.206 11.6619 13.5633 11.6619 13.915H15.6619ZM15.6435 14.1182C15.6089 14.2304 15.5364 14.3788 15.4047 14.5182C15.2741 14.6565 15.1372 14.7312 15.0449 14.7667L13.609 11.0333C12.7487 11.3642 12.0993 12.0354 11.8204 12.9418L15.6435 14.1182ZM15.1148 14.7383C15.0675 14.7586 15.0886 14.7415 15.2223 14.7224C15.3494 14.7042 15.5369 14.69 15.7969 14.69V10.69C15.0618 10.69 14.2438 10.7597 13.5391 11.0617L15.1148 14.7383ZM15.7969 14.69H25.2469V10.69H15.7969V14.69ZM28.0846 24.8082C28.7073 22.5568 29.0669 20.625 29.0669 19.095H25.0669C25.0669 20.085 24.8199 21.6066 24.2293 23.7418L28.0846 24.8082ZM29.0669 19.095C29.0669 17.7053 28.8016 16.1141 27.6423 15.0601L24.9516 18.0199C24.8744 17.9497 24.9067 17.9307 24.9595 18.1059C25.0142 18.2875 25.0669 18.602 25.0669 19.095H29.0669ZM27.6423 15.0601C26.6411 14.15 25.3564 13.84 24.0919 13.84V17.84C24.7408 17.84 24.9261 17.9967 24.9516 18.0199L27.6423 15.0601ZM24.0919 13.84H23.3219V17.84H24.0919V13.84ZM21.3949 15.3047L16.6699 32.3147L20.524 33.3853L25.249 16.3753L21.3949 15.3047ZM18.5969 34.85H19.4369V30.85H18.5969V34.85ZM19.4369 34.85C20.7824 34.85 22.0658 34.5713 23.1771 33.8902L21.0868 30.4798C20.7514 30.6854 20.2382 30.85 19.4369 30.85V34.85ZM23.1919 33.881C24.3653 33.1476 25.2605 31.9569 25.9719 30.5866L22.4219 28.7434C21.8734 29.7998 21.3919 30.289 21.0719 30.489L23.1919 33.881ZM25.979 30.5729C26.6949 29.1676 27.3897 27.2284 28.0793 24.827L24.2346 23.723C23.5708 26.0349 22.959 27.6891 22.4149 28.7571L25.979 30.5729Z" fill="black" mask="url(#path-3-outside-2_393_138)"/>
</svg>
